<?xml version="1.0" encoding="UTF-8"?>
<!-- Created with Inkscape (http://www.inkscape.org/) -->
<svg width="200" height="70" version="1.1" viewBox="0 0 52.917 18.521" xmlns="http://www.w3.org/2000/svg">
 <g fill="#3C1874">
  <path d="m0 0v11.906h21.167v-3.9688h-1.3229v2.6458h-18.521v-9.2604h18.521v2.6458h1.3229v-3.9688h-21.167z" stroke-width="2.1603"/>
  <g transform="matrix(.26487 0 0 .26487 -756.53 182.05)" style="shape-inside:url(#rect34985);white-space:pre" aria-label="Vorname Nachname ">
   <path d="m2858.8-621.14h8.904v2.24h-11.48v-18.144h2.576z"/>
   <path d="m2872.9-621.08h8.904v2.184h-11.48v-18.144h11.34v2.184h-8.764v5.656h7.672l-0.28 2.128h-7.392z"/>
   <path d="m2892.6-618.56q-2.716 0-4.62-1.176-1.904-1.204-2.884-3.332-0.952-2.128-0.952-4.956 0-3.136 1.176-5.236t3.136-3.108 4.34-1.008q2.716 0 4.62 1.204 1.904 1.176 2.856 3.304 0.98 2.128 0.98 4.956 0 3.136-1.176 5.236t-3.136 3.108-4.34 1.008zm0-2.184q1.988 0 3.304-0.896 1.344-0.924 1.988-2.52 0.672-1.596 0.672-3.724 0-2.184-0.644-3.808-0.616-1.652-1.904-2.576t-3.22-0.924q-1.988 0-3.332 0.924-1.316 0.896-1.988 2.492-0.644 1.596-0.644 3.724 0 2.184 0.616 3.836 0.644 1.624 1.932 2.548t3.22 0.924z"/>
   <path d="m2919.5-637.04v18.144h-2.856l-7.98-11.76-0.364-0.532q-0.056-0.112-0.364-0.532-0.28-0.42-0.504-0.784-0.196-0.364-0.364-0.728v14.336h-2.464v-18.144h2.716l8.204 12.012q0.112 0.168 0.476 0.7 0.364 0.504 0.616 0.952 0.252 0.42 0.42 0.812v-14.476z"/>
   <path d="m2936.5-637.04h2.576v18.144h-2.576v-8.148h-10.024v8.148h-2.576v-18.144h2.576v7.812h10.024z"/>
   <path d="m2951.5-637.04 6.832 17.976v0.168h-2.688l-1.904-5.18h-7.728l-1.876 5.18h-2.576v-0.168l6.804-17.976zm-4.704 10.836h6.16l-3.08-8.4z"/>
   <path d="m2974.4-619.07v0.168h-2.968l-5.236-7.084h-2.688v7.084h-2.576v-18.144h5.908q2.128 0 3.584 0.672 1.484 0.672 2.212 1.876 0.756 1.204 0.756 2.8 0 1.288-0.504 2.38-0.476 1.092-1.456 1.904-0.98 0.784-2.436 1.148zm-10.892-9.044h2.94q2.1 0 3.164-0.896 1.092-0.924 1.092-2.576 0-1.596-1.008-2.436-0.98-0.84-2.912-0.84h-3.276z"/>
   <path d="m2982.4-637.04q4.62 0 7.056 2.156 2.464 2.156 2.464 6.916 0 3.052-1.26 5.096-1.232 2.016-3.472 2.996t-5.264 0.98h-4.984v-18.144zm-0.784 15.96q2.464 0 4.116-0.588t2.576-2.1 0.924-4.2q0-3.556-1.652-5.208-1.652-1.68-5.124-1.68h-2.94v13.776z"/>
   <path d="m3004.3-621.14h8.904v2.24h-11.48v-18.144h2.576z"/>
   <path d="m3015.8-618.9v-18.144h2.576v18.144z"/>
   <path d="m3037.6-637.04v18.144h-2.856l-7.98-11.76-0.364-0.532q-0.056-0.112-0.364-0.532-0.28-0.42-0.504-0.784-0.196-0.364-0.364-0.728v14.336h-2.464v-18.144h2.716l8.204 12.012q0.112 0.168 0.476 0.7 0.364 0.504 0.616 0.952 0.252 0.42 0.42 0.812v-14.476z"/>
   <path d="m3047.6-628.33 8.4 9.268v0.168h-3.108l-8.316-9.268v9.268h-2.576v-18.144h2.576v8.652l8.148-8.652h2.94v0.168z"/>
  </g>
  <path d="m15.875 5.2917h21.167v1.3229h-21.167z" stroke-width="1.3663"/>
  <path d="m31.75 0v3.9688h1.3229v-2.6458h18.521v9.2604h-18.521v-2.6458h-1.3229v3.9688h21.167v-11.906h-21.167z"/>
  <path d="m31.75 0v3.9688h1.3229v-2.6458h18.521v9.2604h-18.521v-2.6458h-1.3229v3.9688h21.167v-11.906h-21.167z" stroke-width="2.1603"/>
 </g>
</svg>
