<?xml version="1.0" encoding="UTF-8"?>
<!-- Created with Inkscape (http://www.inkscape.org/) -->
<svg width="120" height="120" version="1.1" viewBox="0 0 120 120" xmlns="http://www.w3.org/2000/svg">
 <g transform="translate(10.83 44.479)">
  <g transform="matrix(3.75 0 0 3.75 -10.83 -44.479)" fill="none" stroke="#7691b2" stroke-linejoin="round" stroke-miterlimit="10" stroke-width="2">
   <rect x="1" y="7" width="30" height="24"/>
   <path d="m31 7h-30v6c0 2.209 1.791 4 4 4h22c2.209 0 4-1.791 4-4z"/>
   <path d="m8 7v-4c0-1.105 0.895-2 2-2h12c1.105 0 2 0.895 2 2v4"/>
   <path d="m16 21c-1.105 0-2-0.895-2-2v-4c0-1.105 0.895-2 2-2s2 0.895 2 2v4c0 1.105-0.895 2-2 2z"/>
   <line x1="18" x2="14" y1="17" y2="17"/>
  </g>
 </g>
</svg>
